<?xml version="1.0" standalone="no"?>
<!DOCTYPE svg PUBLIC "-//W3C//DTD SVG 20010904//EN"
 "http://www.w3.org/TR/2001/REC-SVG-20010904/DTD/svg10.dtd">
<svg version="1.0" xmlns="http://www.w3.org/2000/svg"
 width="500.000000pt" height="500.000000pt" viewBox="0 0 500.000000 500.000000"
 preserveAspectRatio="xMidYMid meet">

<g transform="translate(0.000000,500.000000) scale(0.100000,-0.100000)"
fill="#ffffff" stroke="none">
<path d="M3571 4064 c-146 -94 -256 -124 -456 -124 -154 0 -237 12 -598 84
-409 82 -480 89 -623 60 -103 -21 -162 -45 -246 -100 -85 -54 -132 -103 -181
-186 -53 -89 -72 -157 -71 -253 1 -92 21 -148 75 -210 55 -62 155 -93 229 -70
31 9 77 51 96 87 21 40 18 117 -6 156 -42 68 -112 87 -204 56 -91 -31 -121 14
-75 111 24 52 60 85 133 123 48 25 60 27 176 27 120 0 131 -2 265 -44 269 -84
301 -92 418 -103 108 -11 127 -10 250 12 72 13 156 32 186 42 30 10 57 16 59
13 7 -6 11 -3 -78 -60 -172 -109 -372 -295 -439 -409 -54 -91 -90 -206 -103
-325 -6 -58 -12 -107 -13 -109 -1 -1 -31 11 -66 27 -100 47 -180 64 -279 59
-102 -6 -162 -25 -256 -84 -97 -60 -102 -66 -70 -101 l25 -27 38 21 c63 35
122 46 188 34 172 -32 304 -153 353 -326 22 -75 36 -155 27 -155 -3 0 -37 16
-75 35 -137 69 -274 80 -414 33 -69 -23 -156 -65 -156 -76 0 -4 10 -19 23 -35
22 -27 23 -27 83 -16 84 15 210 -7 311 -55 175 -83 338 -306 374 -510 45 -260
-82 -436 -314 -436 -52 0 -114 12 -222 40 -157 42 -201 46 -299 30 -114 -18
-206 -78 -269 -173 -36 -54 -92 -197 -85 -217 2 -7 18 -18 36 -25 31 -14 32
-13 48 21 35 74 114 111 215 100 31 -3 133 -31 225 -63 163 -55 172 -57 269
-56 128 1 238 28 370 93 231 112 507 336 637 517 119 165 172 301 209 533 23
140 23 163 21 683 -2 353 1 566 8 620 14 103 59 240 111 337 43 80 172 262
209 295 12 11 36 37 52 58 l31 38 -29 30 c-15 16 -30 29 -33 28 -3 -1 -44 -25
-90 -55z m-258 -286 c-181 -186 -274 -358 -340 -634 l-28 -119 -1 -640 c0
-581 -2 -647 -18 -715 -37 -152 -90 -250 -193 -356 -59 -61 -86 -80 -201 -137
-73 -37 -135 -67 -137 -67 -2 0 36 39 84 87 108 109 151 189 181 342 20 98 21
134 20 715 -1 418 2 641 10 706 37 296 185 564 400 723 58 44 269 167 285 167
5 0 -23 -33 -62 -72z"/>
</g>
</svg>
