<svg width="512" height="512" version="1.1" xmlns="http://www.w3.org/2000/svg" desc="Created with imagetracer.js version 1.2.6" ><path fill="rgb(223,130,195)" stroke="rgb(223,130,195)" stroke-width="1" opacity="0.9882352941176471" d="M 289.5 21 L 291.5 21 L 300.5 22 Q 308.6 24.9 313 31.5 L 412 141.5 L 417 149 L 422 152.5 L 418.5 150 L 409.5 146 L 401.5 146 L 393.5 149 L 383.5 159 L 386.5 154 L 221.5 183 L 191 149.5 Q 186.1 144.4 187 133.5 L 192 123.5 L 254 55.5 L 259 47.5 L 278.5 26 L 289.5 21 Z " /><path fill="rgb(223,130,195)" stroke="rgb(223,130,195)" stroke-width="1" opacity="0.9882352941176471" d="M 381.5 161 L 374.5 169 L 381.5 161 Z " /><path fill="rgb(223,130,195)" stroke="rgb(223,130,195)" stroke-width="1" opacity="0.9882352941176471" d="M 373.5 170 L 368.5 176 L 373.5 170 Z " /><path fill="rgb(223,130,195)" stroke="rgb(223,130,195)" stroke-width="1" opacity="0.9882352941176471" d="M 363.5 181 L 359.5 186 L 363.5 181 Z " /><path fill="rgb(223,130,195)" stroke="rgb(223,130,195)" stroke-width="1" opacity="0.9882352941176471" d="M 355.5 190 L 350.5 196 L 355.5 190 Z " /><path fill="rgb(223,130,195)" stroke="rgb(223,130,195)" stroke-width="1" opacity="0.9882352941176471" d="M 346.5 200 L 341.5 206 L 346.5 200 Z " /><path fill="rgb(223,130,195)" stroke="rgb(223,130,195)" stroke-width="1" opacity="0.9882352941176471" d="M 469.5 206 L 473.5 211 L 469.5 206 Z " /><path fill="rgb(223,130,195)" stroke="rgb(223,130,195)" stroke-width="1" opacity="0.9882352941176471" d="M 337.5 210 L 333.5 215 L 337.5 210 Z " /><path fill="rgb(223,130,195)" stroke="rgb(223,130,195)" stroke-width="1" opacity="0.9882352941176471" d="M 478.5 216 L 482.5 221 L 478.5 216 Z " /><path fill="rgb(223,130,195)" stroke="rgb(223,130,195)" stroke-width="1" opacity="0.9882352941176471" d="M 328.5 220 L 324.5 225 L 328.5 220 Z " /><path fill="rgb(223,130,195)" stroke="rgb(223,130,195)" stroke-width="1" opacity="0.9882352941176471" d="M 485.5 224 L 496 235.5 L 492 232.5 L 485.5 224 Z " /><path fill="rgb(223,130,195)" stroke="rgb(223,130,195)" stroke-width="1" opacity="0.9882352941176471" d="M 319.5 230 L 317.5 233 L 319.5 230 Z " /><path fill="rgb(223,130,195)" stroke="rgb(223,130,195)" stroke-width="1" opacity="0.9882352941176471" d="M 496.5 237 L 499 242.5 L 498 242.5 L 496.5 237 Z " /><path fill="rgb(223,130,195)" stroke="rgb(223,130,195)" stroke-width="1" opacity="0.9882352941176471" d="M 500.5 247 L 501 250.5 L 500 250.5 L 500.5 247 Z " /><path fill="rgb(223,130,195)" stroke="rgb(223,130,195)" stroke-width="1" opacity="0.9882352941176471" d="M 309.5 251 L 310 259.5 L 309 259.5 L 309.5 251 Z " /><path fill="rgb(223,130,195)" stroke="rgb(223,130,195)" stroke-width="1" opacity="0.9882352941176471" d="M 500.5 261 L 501 263.5 L 500 263.5 L 500.5 261 Z " /><path fill="rgb(223,130,195)" stroke="rgb(223,130,195)" stroke-width="1" opacity="0.9882352941176471" d="M 499.5 265 L 500 267.5 L 499 267.5 L 499.5 265 Z " /><path fill="rgb(223,130,195)" stroke="rgb(223,130,195)" stroke-width="1" opacity="0.9882352941176471" d="M 498.5 269 L 499 270.5 L 495.5 276 L 496 274.5 L 498.5 269 Z " /><path fill="rgb(223,130,195)" stroke="rgb(223,130,195)" stroke-width="1" opacity="0.9882352941176471" d="M 315.5 276 L 316.5 278 L 315.5 276 Z " /><path fill="rgb(223,130,195)" stroke="rgb(223,130,195)" stroke-width="1" opacity="0.9882352941176471" d="M 494.5 277 L 493 279.5 L 465.5 311 L 464 310.5 L 481 292.5 L 481 291 Q 483.7 292.1 483 289.5 L 494.5 277 Z " /><path fill="rgb(223,130,195)" stroke="rgb(223,130,195)" stroke-width="1" opacity="0.9882352941176471" d="M 318.5 280 L 321.5 284 L 318.5 280 Z " /><path fill="rgb(223,130,195)" stroke="rgb(223,130,195)" stroke-width="1" opacity="0.9882352941176471" d="M 326.5 289 L 330.5 294 L 326.5 289 Z " /><path fill="rgb(223,130,195)" stroke="rgb(223,130,195)" stroke-width="1" opacity="0.9882352941176471" d="M 336.5 300 L 340.5 305 L 336.5 300 Z " /><path fill="rgb(223,130,195)" stroke="rgb(223,130,195)" stroke-width="1" opacity="0.9882352941176471" d="M 345.5 310 L 349.5 315 L 345.5 310 Z " /><path fill="rgb(223,130,195)" stroke="rgb(223,130,195)" stroke-width="1" opacity="0.9882352941176471" d="M 463.5 312 L 458 318.5 L 456.5 321 Q 454.3 320.3 455 322.5 L 449 330 L 446 331.5 L 440 340 L 437 341.5 L 431 350 L 428 351.5 L 420.5 361 L 418.5 362 L 425 354.5 L 463.5 312 Z " /><path fill="rgb(223,130,195)" stroke="rgb(223,130,195)" stroke-width="1" opacity="0.9882352941176471" d="M 355.5 321 L 358.5 325 L 355.5 321 Z " /><path fill="rgb(223,130,195)" stroke="rgb(223,130,195)" stroke-width="1" opacity="0.9882352941176471" d="M 364.5 331 L 368.5 336 L 364.5 331 Z " /><path fill="rgb(223,130,195)" stroke="rgb(223,130,195)" stroke-width="1" opacity="0.9882352941176471" d="M 373.5 341 L 378.5 347 L 373.5 341 Z " /><path fill="rgb(223,130,195)" stroke="rgb(223,130,195)" stroke-width="1" opacity="0.9882352941176471" d="M 383.5 352 L 387.5 357 L 383.5 352 Z " /><path fill="rgb(223,130,195)" stroke="rgb(223,130,195)" stroke-width="1" opacity="0.9882352941176471" d="M 392.5 361 L 393.5 363 L 392.5 361 Z " /><path fill="rgb(0,0,0)" stroke="rgb(0,0,0)" stroke-width="1" opacity="0" d="M 0 0 L 512 0 L 512 512 L 0 512 L 0 0 Z M 215 21 L 207 24 L 18 233 L 12 244 L 10 254 Q 10 271 18 280 L 197 479 Q 203 487 214 491 Q 225 493 231 488 L 256 461 L 274 482 Q 279 489 289 491 Q 301 493 307 487 L 493 281 L 501 265 L 501 248 L 493 232 L 314 33 Q 309 23 297 21 Q 284 20 279 26 L 257 50 L 257 51 L 254 50 Q 255 47 252 48 L 236 28 L 227 22 L 215 21 Z " /><path fill="rgb(151,45,139)" stroke="rgb(151,45,139)" stroke-width="1" opacity="0.984313725490196" d="M 215.5 21 L 222.5 21 L 230.5 24 L 244 37.5 L 252 46.5 L 252 48.5 L 220 83.5 L 220 85 Q 217.3 83.9 218 86.5 L 206.5 99 Q 204.3 98.3 205 100.5 L 193.5 113 Q 186.3 112.3 184 116.5 L 177 128.5 L 176 141.5 L 178 149.5 L 182 156.5 L 202 179.5 L 162.5 186 L 156.5 188 L 145.5 189 L 139.5 191 L 128.5 192 L 122.5 194 L 111.5 195 L 105.5 197 L 94.5 198 L 88.5 200 L 77.5 201 L 71.5 203 L 60.5 204 L 54.5 206 L 42 207 L 40.5 210 L 40 208.5 L 205.5 25 L 215.5 21 Z " /><path fill="rgb(151,45,139)" stroke="rgb(151,45,139)" stroke-width="1" opacity="0.984313725490196" d="M 255.5 52 L 249.5 59 L 255.5 52 Z " /><path fill="rgb(151,45,139)" stroke="rgb(151,45,139)" stroke-width="1" opacity="0.984313725490196" d="M 246.5 62 L 240.5 69 L 246.5 62 Z " /><path fill="rgb(151,45,139)" stroke="rgb(151,45,139)" stroke-width="1" opacity="0.984313725490196" d="M 237.5 72 L 232.5 78 L 237.5 72 Z " /><path fill="rgb(151,45,139)" stroke="rgb(151,45,139)" stroke-width="1" opacity="0.984313725490196" d="M 228.5 82 L 223.5 88 L 228.5 82 Z " /><path fill="rgb(151,45,139)" stroke="rgb(151,45,139)" stroke-width="1" opacity="0.984313725490196" d="M 219.5 92 L 215.5 97 L 219.5 92 Z " /><path fill="rgb(151,45,139)" stroke="rgb(151,45,139)" stroke-width="1" opacity="0.984313725490196" d="M 210.5 102 L 206.5 107 L 210.5 102 Z " /><path fill="rgb(151,45,139)" stroke="rgb(151,45,139)" stroke-width="1" opacity="0.984313725490196" d="M 201.5 112 L 197.5 117 L 201.5 112 Z " /><path fill="rgb(151,45,139)" stroke="rgb(151,45,139)" stroke-width="1" opacity="0.984313725490196" d="M 192.5 122 L 190.5 125 L 192.5 122 Z " /><path fill="rgb(151,45,139)" stroke="rgb(151,45,139)" stroke-width="1" opacity="0.984313725490196" d="M 186.5 134 L 187 139.5 L 186 139.5 L 186.5 134 Z " /><path fill="rgb(151,45,139)" stroke="rgb(151,45,139)" stroke-width="1" opacity="0.984313725490196" d="M 192.5 152 L 196.5 157 L 192.5 152 Z " /><path fill="rgb(151,45,139)" stroke="rgb(151,45,139)" stroke-width="1" opacity="0.984313725490196" d="M 202.5 163 L 205.5 167 L 202.5 163 Z " /><path fill="rgb(151,45,139)" stroke="rgb(151,45,139)" stroke-width="1" opacity="0.984313725490196" d="M 211.5 173 L 214.5 177 L 211.5 173 Z " /><path fill="rgb(151,45,139)" stroke="rgb(151,45,139)" stroke-width="1" opacity="0.984313725490196" d="M 220.5 183 L 223.5 187 L 220.5 183 Z " /><path fill="rgb(151,45,139)" stroke="rgb(151,45,139)" stroke-width="1" opacity="0.984313725490196" d="M 229.5 193 L 233.5 198 L 229.5 193 Z " /><path fill="rgb(151,45,139)" stroke="rgb(151,45,139)" stroke-width="1" opacity="0.984313725490196" d="M 239.5 204 L 242.5 208 L 239.5 204 Z " /><path fill="rgb(151,45,139)" stroke="rgb(151,45,139)" stroke-width="1" opacity="0.984313725490196" d="M 36.5 213 L 35.5 215 L 36.5 213 Z " /><path fill="rgb(151,45,139)" stroke="rgb(151,45,139)" stroke-width="1" opacity="0.984313725490196" d="M 248.5 214 L 251.5 218 L 248.5 214 Z " /><path fill="rgb(151,45,139)" stroke="rgb(151,45,139)" stroke-width="1" opacity="0.984313725490196" d="M 33.5 216 L 33 217.5 L 32.5 219 L 32 217.5 L 33.5 216 Z " /><path fill="rgb(151,45,139)" stroke="rgb(151,45,139)" stroke-width="1" opacity="0.984313725490196" d="M 257.5 224 L 260.5 228 L 257.5 224 Z " /><path fill="rgb(151,45,139)" stroke="rgb(151,45,139)" stroke-width="1" opacity="0.984313725490196" d="M 24.5 226 L 23.5 228 L 24.5 226 Z " /><path fill="rgb(151,45,139)" stroke="rgb(151,45,139)" stroke-width="1" opacity="0.984313725490196" d="M 266.5 234 L 269.5 238 L 266.5 234 Z " /><path fill="rgb(151,45,139)" stroke="rgb(151,45,139)" stroke-width="1" opacity="0.984313725490196" d="M 273.5 269 L 272.5 271 L 273.5 269 Z " /><path fill="rgb(151,45,139)" stroke="rgb(151,45,139)" stroke-width="1" opacity="0.984313725490196" d="M 269.5 274 L 266.5 278 L 269.5 274 Z " /><path fill="rgb(151,45,139)" stroke="rgb(151,45,139)" stroke-width="1" opacity="0.984313725490196" d="M 260.5 284 L 258.5 287 L 260.5 284 Z " /><path fill="rgb(151,45,139)" stroke="rgb(151,45,139)" stroke-width="1" opacity="0.984313725490196" d="M 251.5 294 L 249.5 297 L 251.5 294 Z " /><path fill="rgb(151,45,139)" stroke="rgb(151,45,139)" stroke-width="1" opacity="0.984313725490196" d="M 242.5 304 L 240.5 307 L 242.5 304 Z " /><path fill="rgb(151,45,139)" stroke="rgb(151,45,139)" stroke-width="1" opacity="0.984313725490196" d="M 233.5 314 L 231.5 317 L 233.5 314 Z " /><path fill="rgb(151,45,139)" stroke="rgb(151,45,139)" stroke-width="1" opacity="0.984313725490196" d="M 224.5 324 L 222.5 327 L 224.5 324 Z " /><path fill="rgb(151,45,139)" stroke="rgb(151,45,139)" stroke-width="1" opacity="0.984313725490196" d="M 215.5 334 L 213.5 337 L 215.5 334 Z " /><path fill="rgb(151,45,139)" stroke="rgb(151,45,139)" stroke-width="1" opacity="0.984313725490196" d="M 206.5 344 L 204.5 347 L 206.5 344 Z " /><path fill="rgb(151,45,139)" stroke="rgb(151,45,139)" stroke-width="1" opacity="0.984313725490196" d="M 197.5 354 L 195.5 357 L 197.5 354 Z " /><path fill="rgb(151,45,139)" stroke="rgb(151,45,139)" stroke-width="1" opacity="0.984313725490196" d="M 192.5 389 L 194.5 392 L 192.5 389 Z " /><path fill="rgb(151,45,139)" stroke="rgb(151,45,139)" stroke-width="1" opacity="0.984313725490196" d="M 201.5 399 L 203.5 402 L 201.5 399 Z " /><path fill="rgb(151,45,139)" stroke="rgb(151,45,139)" stroke-width="1" opacity="0.984313725490196" d="M 210.5 409 L 212.5 412 L 210.5 409 Z " /><path fill="rgb(151,45,139)" stroke="rgb(151,45,139)" stroke-width="1" opacity="0.984313725490196" d="M 219.5 419 L 221.5 422 L 219.5 419 Z " /><path fill="rgb(151,45,139)" stroke="rgb(151,45,139)" stroke-width="1" opacity="0.984313725490196" d="M 228.5 429 L 230.5 432 L 228.5 429 Z " /><path fill="rgb(151,45,139)" stroke="rgb(151,45,139)" stroke-width="1" opacity="0.984313725490196" d="M 237.5 439 L 240.5 443 L 237.5 439 Z " /><path fill="rgb(151,45,139)" stroke="rgb(151,45,139)" stroke-width="1" opacity="0.984313725490196" d="M 246.5 449 L 249.5 453 L 246.5 449 Z " /><path fill="rgb(138,42,129)" stroke="rgb(138,42,129)" stroke-width="1" opacity="0.996078431372549" d="M 252.5 48 L 256 51.5 L 249 58.5 L 190 124.5 Q 185.8 129.8 186 139.5 L 189 148.5 L 202 162.5 L 198.5 160 L 197.5 161 L 195 161.5 L 244 217.5 L 240 218 L 241 221.5 L 265 248.5 Q 267.7 252.3 266 260.5 L 264 264.5 L 247.5 282 L 242.5 282 L 236.5 284 L 157.5 297 L 151.5 299 L 140.5 300 L 134.5 302 L 123.5 303 L 117.5 305 L 106.5 306 L 100.5 308 L 89.5 309 L 83.5 311 L 72.5 312 L 66.5 314 L 55.5 315 L 52.5 317 L 49 313.5 Q 51.3 312.3 48.5 311 Q 47.3 313.3 46 310.5 Q 48.3 309.3 45.5 308 L 37 300.5 L 16 276.5 L 11 264.5 L 10 254.5 Q 12.5 253 11 247.5 L 16 235 Q 18.7 236.1 18 233.5 L 22.5 228 L 25 226.5 L 29 220.5 Q 31 216.8 33 218.5 L 34 215 L 37 213.5 L 36.5 212 L 39 211.5 Q 36.8 210.2 39.5 209 Q 40.8 211.3 42 208.5 Q 41.5 205.5 48.5 207 L 60.5 204 L 71.5 203 L 77.5 201 L 88.5 200 L 94.5 198 L 105.5 197 L 111.5 195 L 122.5 194 L 128.5 192 L 139.5 191 L 145.5 189 L 156.5 188 L 162.5 186 L 202 179.5 L 180 153.5 Q 175.3 146.2 176 133.5 Q 178.1 120.6 186.5 114 L 193.5 113 L 196 110.5 L 205 99 L 209 96.5 L 218 85 Q 220.7 86.1 220 83.5 L 252.5 48 Z " /><path fill="rgb(138,42,129)" stroke="rgb(138,42,129)" stroke-width="1" opacity="0.996078431372549" d="M 207.5 169 L 210.5 173 L 207.5 169 Z " /><path fill="rgb(138,42,129)" stroke="rgb(138,42,129)" stroke-width="1" opacity="0.996078431372549" d="M 216.5 179 L 219.5 183 L 216.5 179 Z " /><path fill="rgb(138,42,129)" stroke="rgb(138,42,129)" stroke-width="1" opacity="0.996078431372549" d="M 226.5 190 L 228.5 193 L 226.5 190 Z " /><path fill="rgb(138,42,129)" stroke="rgb(138,42,129)" stroke-width="1" opacity="0.996078431372549" d="M 236.5 201 L 238.5 204 L 236.5 201 Z " /><path fill="rgb(138,42,129)" stroke="rgb(138,42,129)" stroke-width="1" opacity="0.996078431372549" d="M 245.5 211 L 247.5 214 L 245.5 211 Z " /><path fill="rgb(138,42,129)" stroke="rgb(138,42,129)" stroke-width="1" opacity="0.996078431372549" d="M 254.5 221 L 256.5 224 L 254.5 221 Z " /><path fill="rgb(138,42,129)" stroke="rgb(138,42,129)" stroke-width="1" opacity="0.996078431372549" d="M 263.5 231 L 265.5 234 L 263.5 231 Z " /><path fill="rgb(138,42,129)" stroke="rgb(138,42,129)" stroke-width="1" opacity="0.996078431372549" d="M 257.5 287 L 256.5 289 L 257.5 287 Z " /><path fill="rgb(138,42,129)" stroke="rgb(138,42,129)" stroke-width="1" opacity="0.996078431372549" d="M 248.5 297 L 247.5 299 L 248.5 297 Z " /><path fill="rgb(138,42,129)" stroke="rgb(138,42,129)" stroke-width="1" opacity="0.996078431372549" d="M 239.5 307 L 238.5 309 L 239.5 307 Z " /><path fill="rgb(138,42,129)" stroke="rgb(138,42,129)" stroke-width="1" opacity="0.996078431372549" d="M 230.5 317 L 229.5 319 L 230.5 317 Z " /><path fill="rgb(138,42,129)" stroke="rgb(138,42,129)" stroke-width="1" opacity="0.996078431372549" d="M 221.5 327 L 220.5 329 L 221.5 327 Z " /><path fill="rgb(138,42,129)" stroke="rgb(138,42,129)" stroke-width="1" opacity="0.996078431372549" d="M 212.5 337 L 211.5 339 L 212.5 337 Z " /><path fill="rgb(138,42,129)" stroke="rgb(138,42,129)" stroke-width="1" opacity="0.996078431372549" d="M 203.5 347 L 202.5 349 L 203.5 347 Z " /><path fill="rgb(138,42,129)" stroke="rgb(138,42,129)" stroke-width="1" opacity="0.996078431372549" d="M 199.5 397 L 200.5 399 L 199.5 397 Z " /><path fill="rgb(138,42,129)" stroke="rgb(138,42,129)" stroke-width="1" opacity="0.996078431372549" d="M 208.5 407 L 209.5 409 L 208.5 407 Z " /><path fill="rgb(138,42,129)" stroke="rgb(138,42,129)" stroke-width="1" opacity="0.996078431372549" d="M 217.5 417 L 218.5 419 L 217.5 417 Z " /><path fill="rgb(221,124,192)" stroke="rgb(221,124,192)" stroke-width="1" opacity="0.996078431372549" d="M 253.5 55 L 252.5 57 L 253.5 55 Z " /><path fill="rgb(221,124,192)" stroke="rgb(221,124,192)" stroke-width="1" opacity="0.996078431372549" d="M 244.5 65 L 243.5 67 L 244.5 65 Z " /><path fill="rgb(221,124,192)" stroke="rgb(221,124,192)" stroke-width="1" opacity="0.996078431372549" d="M 235.5 75 L 234.5 77 L 235.5 75 Z " /><path fill="rgb(221,124,192)" stroke="rgb(221,124,192)" stroke-width="1" opacity="0.996078431372549" d="M 226.5 85 L 225.5 87 L 226.5 85 Z " /><path fill="rgb(221,124,192)" stroke="rgb(221,124,192)" stroke-width="1" opacity="0.996078431372549" d="M 209.5 104 L 208.5 106 L 209.5 104 Z " /><path fill="rgb(221,124,192)" stroke="rgb(221,124,192)" stroke-width="1" opacity="0.996078431372549" d="M 200.5 114 L 199.5 116 L 200.5 114 Z " /><path fill="rgb(221,124,192)" stroke="rgb(221,124,192)" stroke-width="1" opacity="0.996078431372549" d="M 194.5 153 L 195.5 155 L 194.5 153 Z " /><path fill="rgb(221,124,192)" stroke="rgb(221,124,192)" stroke-width="1" opacity="0.996078431372549" d="M 384.5 154 L 387 154.5 L 317 232.5 L 310 246.5 L 309 259.5 L 311 268.5 L 318 280.5 L 355 320.5 L 349.5 316 L 212.5 340 L 215 336.5 L 273 271.5 Q 278.5 265 278 252.5 L 273 240.5 L 221 183.5 L 384.5 154 Z " /><path fill="rgb(221,124,192)" stroke="rgb(221,124,192)" stroke-width="1" opacity="0.996078431372549" d="M 203.5 163 L 205.5 166 L 203.5 163 Z " /><path fill="rgb(221,124,192)" stroke="rgb(221,124,192)" stroke-width="1" opacity="0.996078431372549" d="M 212.5 173 L 214.5 176 L 212.5 173 Z " /><path fill="rgb(221,124,192)" stroke="rgb(221,124,192)" stroke-width="1" opacity="0.996078431372549" d="M 356.5 323 L 363.5 331 L 356.5 323 Z " /><path fill="rgb(221,124,192)" stroke="rgb(221,124,192)" stroke-width="1" opacity="0.996078431372549" d="M 369.5 337 L 372.5 341 L 369.5 337 Z " /><path fill="rgb(221,124,192)" stroke="rgb(221,124,192)" stroke-width="1" opacity="0.996078431372549" d="M 378.5 347 L 382.5 352 L 378.5 347 Z " /><path fill="rgb(221,124,192)" stroke="rgb(221,124,192)" stroke-width="1" opacity="0.996078431372549" d="M 387.5 357 L 390.5 361 L 387.5 357 Z " /><path fill="rgb(128,40,121)" stroke="rgb(128,40,121)" stroke-width="1" opacity="0.9921568627450981" d="M 198.5 160 L 272 240.5 L 277 251.5 L 277 260.5 L 274.5 267 L 272.5 266 L 267 269.5 Q 267.8 271.8 265.5 271 L 203.5 339 L 196 340 L 185.5 353 Q 183.3 352.3 184 354.5 L 177 365.5 L 176 380.5 Q 178.4 392.1 186 398.5 L 148.5 406 L 137.5 407 L 134.5 409 Q 136.2 407 132.5 405 L 131 404.5 Q 133.3 403.3 130.5 402 Q 129.3 404.3 128 401.5 Q 130.3 400.3 127.5 399 L 125 398.5 L 125.5 397 L 122 394.5 L 122.5 393 Q 118.5 393.5 118 390.5 Q 118.8 388.3 116.5 389 L 116.5 387 L 109 380.5 L 107 377.5 L 62 328.5 L 57 321 L 53 318.5 Q 51.9 315.2 54.5 316 L 89.5 309 L 100.5 308 L 106.5 306 L 117.5 305 L 123.5 303 L 134.5 302 L 140.5 300 L 151.5 299 L 157.5 297 L 168.5 296 L 174.5 294 L 185.5 293 L 191.5 291 L 202.5 290 L 208.5 288 L 219.5 287 L 225.5 285 L 236.5 284 L 242.5 282 L 247.5 282 L 254 275.5 L 266 260.5 L 266 250.5 L 241 221.5 L 240 218 L 244 217.5 L 195 161.5 L 198.5 160 Z " /><path fill="rgb(128,40,121)" stroke="rgb(128,40,121)" stroke-width="1" opacity="0.9921568627450981" d="M 271.5 271 L 270.5 273 L 271.5 271 Z " /><path fill="rgb(128,40,121)" stroke="rgb(128,40,121)" stroke-width="1" opacity="0.9921568627450981" d="M 264.5 279 L 261.5 283 L 264.5 279 Z " /><path fill="rgb(128,40,121)" stroke="rgb(128,40,121)" stroke-width="1" opacity="0.9921568627450981" d="M 26.5 288 L 27.5 290 L 26.5 288 Z " /><path fill="rgb(128,40,121)" stroke="rgb(128,40,121)" stroke-width="1" opacity="0.9921568627450981" d="M 255.5 289 L 253.5 292 L 255.5 289 Z " /><path fill="rgb(128,40,121)" stroke="rgb(128,40,121)" stroke-width="1" opacity="0.9921568627450981" d="M 35.5 298 L 36.5 300 L 35.5 298 Z " /><path fill="rgb(128,40,121)" stroke="rgb(128,40,121)" stroke-width="1" opacity="0.9921568627450981" d="M 246.5 299 L 244.5 302 L 246.5 299 Z " /><path fill="rgb(128,40,121)" stroke="rgb(128,40,121)" stroke-width="1" opacity="0.9921568627450981" d="M 44.5 308 L 52 314.5 L 49.5 313 Q 47.3 313.8 48 311.5 L 44.5 308 Z " /><path fill="rgb(128,40,121)" stroke="rgb(128,40,121)" stroke-width="1" opacity="0.9921568627450981" d="M 237.5 309 L 235.5 312 L 237.5 309 Z " /><path fill="rgb(128,40,121)" stroke="rgb(128,40,121)" stroke-width="1" opacity="0.9921568627450981" d="M 228.5 319 L 226.5 322 L 228.5 319 Z " /><path fill="rgb(128,40,121)" stroke="rgb(128,40,121)" stroke-width="1" opacity="0.9921568627450981" d="M 219.5 329 L 218.5 331 L 219.5 329 Z " /><path fill="rgb(128,40,121)" stroke="rgb(128,40,121)" stroke-width="1" opacity="0.9921568627450981" d="M 210.5 339 L 209.5 341 L 210.5 339 Z " /><path fill="rgb(128,40,121)" stroke="rgb(128,40,121)" stroke-width="1" opacity="0.9921568627450981" d="M 201.5 349 L 200.5 351 L 201.5 349 Z " /><path fill="rgb(128,40,121)" stroke="rgb(128,40,121)" stroke-width="1" opacity="0.9921568627450981" d="M 193.5 358 L 191.5 361 L 193.5 358 Z " /><path fill="rgb(128,40,121)" stroke="rgb(128,40,121)" stroke-width="1" opacity="0.9921568627450981" d="M 197.5 395 L 198.5 397 L 197.5 395 Z " /><path fill="rgb(128,40,121)" stroke="rgb(128,40,121)" stroke-width="1" opacity="0.9921568627450981" d="M 206.5 405 L 207.5 407 L 206.5 405 Z " /><path fill="rgb(128,40,121)" stroke="rgb(128,40,121)" stroke-width="1" opacity="0.9921568627450981" d="M 225.5 426 L 226.5 428 L 225.5 426 Z " /><path fill="rgb(128,40,121)" stroke="rgb(128,40,121)" stroke-width="1" opacity="0.9921568627450981" d="M 234.5 436 L 235.5 438 L 234.5 436 Z " /><path fill="rgb(128,40,121)" stroke="rgb(128,40,121)" stroke-width="1" opacity="0.9921568627450981" d="M 243.5 446 L 244.5 448 L 243.5 446 Z " /><path fill="rgb(128,40,121)" stroke="rgb(128,40,121)" stroke-width="1" opacity="0.9921568627450981" d="M 252.5 456 L 253.5 458 L 252.5 456 Z " /><path fill="rgb(217,114,189)" stroke="rgb(217,114,189)" stroke-width="1" opacity="0.9921568627450981" d="M 251.5 57 L 247.5 62 L 251.5 57 Z " /><path fill="rgb(217,114,189)" stroke="rgb(217,114,189)" stroke-width="1" opacity="0.9921568627450981" d="M 242.5 67 L 238.5 72 L 242.5 67 Z " /><path fill="rgb(217,114,189)" stroke="rgb(217,114,189)" stroke-width="1" opacity="0.9921568627450981" d="M 233.5 77 L 229.5 82 L 233.5 77 Z " /><path fill="rgb(217,114,189)" stroke="rgb(217,114,189)" stroke-width="1" opacity="0.9921568627450981" d="M 224.5 87 L 220.5 92 L 224.5 87 Z " /><path fill="rgb(217,114,189)" stroke="rgb(217,114,189)" stroke-width="1" opacity="0.9921568627450981" d="M 216.5 96 L 211.5 102 L 216.5 96 Z " /><path fill="rgb(217,114,189)" stroke="rgb(217,114,189)" stroke-width="1" opacity="0.9921568627450981" d="M 207.5 106 L 202.5 112 L 207.5 106 Z " /><path fill="rgb(217,114,189)" stroke="rgb(217,114,189)" stroke-width="1" opacity="0.9921568627450981" d="M 198.5 116 L 193.5 122 L 198.5 116 Z " /><path fill="rgb(217,114,189)" stroke="rgb(217,114,189)" stroke-width="1" opacity="0.9921568627450981" d="M 190.5 149 L 193.5 153 L 190.5 149 Z " /><path fill="rgb(217,114,189)" stroke="rgb(217,114,189)" stroke-width="1" opacity="0.9921568627450981" d="M 197.5 157 L 202.5 163 L 197.5 157 Z " /><path fill="rgb(217,114,189)" stroke="rgb(217,114,189)" stroke-width="1" opacity="0.9921568627450981" d="M 206.5 167 L 211.5 173 L 206.5 167 Z " /><path fill="rgb(217,114,189)" stroke="rgb(217,114,189)" stroke-width="1" opacity="0.9921568627450981" d="M 215.5 177 L 220.5 183 L 215.5 177 Z " /><path fill="rgb(217,114,189)" stroke="rgb(217,114,189)" stroke-width="1" opacity="0.9921568627450981" d="M 224.5 187 L 229.5 193 L 224.5 187 Z " /><path fill="rgb(217,114,189)" stroke="rgb(217,114,189)" stroke-width="1" opacity="0.9921568627450981" d="M 234.5 198 L 239.5 204 L 234.5 198 Z " /><path fill="rgb(217,114,189)" stroke="rgb(217,114,189)" stroke-width="1" opacity="0.9921568627450981" d="M 243.5 208 L 248.5 214 L 243.5 208 Z " /><path fill="rgb(217,114,189)" stroke="rgb(217,114,189)" stroke-width="1" opacity="0.9921568627450981" d="M 252.5 218 L 257.5 224 L 252.5 218 Z " /><path fill="rgb(217,114,189)" stroke="rgb(217,114,189)" stroke-width="1" opacity="0.9921568627450981" d="M 261.5 228 L 266.5 234 L 261.5 228 Z " /><path fill="rgb(217,114,189)" stroke="rgb(217,114,189)" stroke-width="1" opacity="0.9921568627450981" d="M 270.5 238 L 272.5 241 L 270.5 238 Z " /><path fill="rgb(217,114,189)" stroke="rgb(217,114,189)" stroke-width="1" opacity="0.9921568627450981" d="M 273.5 242 L 274.5 244 L 273.5 242 Z " /><path fill="rgb(217,114,189)" stroke="rgb(217,114,189)" stroke-width="1" opacity="0.9921568627450981" d="M 277.5 252 L 278 259.5 L 277 259.5 L 277.5 252 Z " /><path fill="rgb(217,114,189)" stroke="rgb(217,114,189)" stroke-width="1" opacity="0.9921568627450981" d="M 272.5 271 L 270.5 274 L 272.5 271 Z " /><path fill="rgb(217,114,189)" stroke="rgb(217,114,189)" stroke-width="1" opacity="0.9921568627450981" d="M 267.5 277 L 261.5 284 L 267.5 277 Z " /><path fill="rgb(217,114,189)" stroke="rgb(217,114,189)" stroke-width="1" opacity="0.9921568627450981" d="M 258.5 287 L 252.5 294 L 258.5 287 Z " /><path fill="rgb(217,114,189)" stroke="rgb(217,114,189)" stroke-width="1" opacity="0.9921568627450981" d="M 249.5 297 L 243.5 304 L 249.5 297 Z " /><path fill="rgb(217,114,189)" stroke="rgb(217,114,189)" stroke-width="1" opacity="0.9921568627450981" d="M 240.5 307 L 234.5 314 L 240.5 307 Z " /><path fill="rgb(217,114,189)" stroke="rgb(217,114,189)" stroke-width="1" opacity="0.9921568627450981" d="M 347.5 316 L 349.5 316 L 356 322.5 L 390.5 361 Q 396.4 368.1 411.5 366 L 419.5 361 L 412 369.5 L 306.5 487 L 298.5 491 L 288.5 491 Q 279.3 488.2 274 481.5 L 256 461.5 L 256 459.5 L 250 452.5 L 190 386.5 Q 185.5 381 187 369.5 L 191 361.5 L 214.5 336 L 212.5 340 L 267.5 331 L 273.5 329 L 284.5 328 L 290.5 326 L 301.5 325 L 307.5 323 L 318.5 322 L 324.5 320 L 335.5 319 L 347.5 316 Z " /><path fill="rgb(217,114,189)" stroke="rgb(217,114,189)" stroke-width="1" opacity="0.9921568627450981" d="M 231.5 317 L 225.5 324 L 231.5 317 Z " /><path fill="rgb(217,114,189)" stroke="rgb(217,114,189)" stroke-width="1" opacity="0.9921568627450981" d="M 223.5 326 L 216.5 334 L 223.5 326 Z " /><path fill="rgb(217,114,189)" stroke="rgb(217,114,189)" stroke-width="1" opacity="0.9921568627450981" d="M 429.5 350 L 428.5 352 L 429.5 350 Z " /><path fill="rgb(230,150,200)" stroke="rgb(230,150,200)" stroke-width="1" opacity="0.996078431372549" d="M 276.5 28 L 275.5 30 L 276.5 28 Z " /><path fill="rgb(230,150,200)" stroke="rgb(230,150,200)" stroke-width="1" opacity="0.996078431372549" d="M 267.5 38 L 266.5 40 L 267.5 38 Z " /><path fill="rgb(230,150,200)" stroke="rgb(230,150,200)" stroke-width="1" opacity="0.996078431372549" d="M 258.5 48 L 257.5 50 L 258.5 48 Z " /><path fill="rgb(230,150,200)" stroke="rgb(230,150,200)" stroke-width="1" opacity="0.996078431372549" d="M 401.5 146 L 409.5 146 L 418.5 150 L 430 161.5 L 435 169 L 437 169 L 437 171 Q 439.7 169.9 439 172.5 L 444 179 L 446 179 L 446 181 Q 448.7 179.9 448 182.5 L 455 191 Q 457.7 189.9 457 192.5 L 462 199 L 464 199 L 464 201 Q 466.7 199.9 466 202.5 L 473.5 211 Q 475.8 210.3 475 212.5 L 482.5 221 Q 484.8 220.3 484 222.5 L 496 236.5 L 500 246.5 L 501 260.5 L 500 263.5 L 500.5 265 Q 497.5 264.1 499 268.5 L 495 276.5 L 483 291 Q 480.3 289.9 481 292.5 L 417.5 362 Q 412.2 366.2 402.5 366 Q 393.1 363.9 388 357.5 L 317 278.5 Q 311.9 272.7 310 263.5 L 310 248.5 Q 312.7 236.7 320 229.5 L 393.5 149 L 401.5 146 Z " /><path fill="rgb(114,36,110)" stroke="rgb(114,36,110)" stroke-width="1" opacity="0.984313725490196" d="M 272.5 266 Q 274.8 265.3 274 267.5 L 270 273.5 L 191 360.5 Q 185.5 366 186 377.5 L 190 387.5 L 256 460.5 L 230.5 488 Q 225 492.5 213.5 491 Q 203.5 487.5 198 479.5 L 132 405.5 L 135.5 408 L 171.5 401 L 182.5 400 L 186 398.5 L 178 387.5 L 176 380.5 L 176 370.5 L 177 365.5 L 184 353 L 187 351.5 L 196 340 L 203.5 339 L 211 331.5 L 265.5 271 Q 267.8 271.8 267 269.5 L 272.5 266 Z " /><path fill="rgb(114,36,110)" stroke="rgb(114,36,110)" stroke-width="1" opacity="0.984313725490196" d="M 126.5 399 L 129 400.5 L 127.5 401 L 126.5 399 Z " /><path fill="rgb(114,36,110)" stroke="rgb(114,36,110)" stroke-width="1" opacity="0.984313725490196" d="M 130.5 402 L 131.5 404 Q 128.7 404.7 130.5 402 Z " /></svg>